<svg width="32" height="32" viewBox="0 0 32 32" fill="none" xmlns="http://www.w3.org/2000/svg">
<path fill-rule="evenodd" clip-rule="evenodd" d="M28.025 5.46255C28.5773 5.46255 29.025 5.91027 29.025 6.46255V12.4626C29.025 13.0148 28.5773 13.4626 28.025 13.4626H22.025C21.4727 13.4626 21.025 13.0148 21.025 12.4626C21.025 11.9103 21.4727 11.4626 22.025 11.4626H27.025V6.46255C27.025 5.91027 27.4727 5.46255 28.025 5.46255Z" fill="#000022"/>
<path fill-rule="evenodd" clip-rule="evenodd" d="M16 6.00122C14.6872 6.00122 13.3872 6.26004 12.1746 6.76287C10.9619 7.2657 9.86021 8.00268 8.9326 8.93164C8.54236 9.32245 7.90919 9.32292 7.51838 8.93268C7.12758 8.54244 7.12711 7.90927 7.51735 7.51846C8.63072 6.40347 9.95299 5.51891 11.4085 4.91539C12.864 4.31187 14.4243 4.00122 16 4.00122C17.5757 4.00122 19.1359 4.31187 20.5914 4.91539C22.0467 5.51879 23.3687 6.40311 24.4819 7.51779L28.731 11.7544C29.1221 12.1444 29.1231 12.7775 28.7331 13.1686C28.3432 13.5597 27.71 13.5606 27.3189 13.1707L23.0674 8.93164C22.1397 8.00268 21.0381 7.2657 19.8254 6.76287C18.6127 6.26004 17.3128 6.00122 16 6.00122Z" fill="#000022"/>
<path fill-rule="evenodd" clip-rule="evenodd" d="M2.97498 19.5376C2.97498 18.9853 3.42269 18.5376 3.97498 18.5376H9.97498C10.5273 18.5376 10.975 18.9853 10.975 19.5376C10.975 20.0898 10.5273 20.5376 9.97498 20.5376H4.97498V25.5376C4.97498 26.0898 4.52726 26.5376 3.97498 26.5376C3.42269 26.5376 2.97498 26.0898 2.97498 25.5376V19.5376Z" fill="#000022"/>
<path fill-rule="evenodd" clip-rule="evenodd" d="M3.26683 18.8315C3.65678 18.4404 4.28994 18.4395 4.68104 18.8294L8.9326 23.0685C9.86021 23.9974 10.9619 24.7344 12.1746 25.2372C13.3872 25.7401 14.6872 25.9989 16 25.9989C17.3128 25.9989 18.6127 25.7401 19.8254 25.2372C21.0381 24.7344 22.1397 23.9974 23.0674 23.0685C23.4576 22.6777 24.0908 22.6772 24.4816 23.0674C24.8724 23.4577 24.8728 24.0908 24.4826 24.4816C23.3692 25.5966 22.047 26.4812 20.5914 27.0847C19.1359 27.6882 17.5757 27.9989 16 27.9989C14.4243 27.9989 12.864 27.6882 11.4085 27.0847C9.95336 26.4813 8.63139 25.5971 7.5182 24.4825L7.51735 24.4816L3.26891 20.2457C2.87781 19.8558 2.87688 19.2226 3.26683 18.8315Z" fill="#000022"/>
</svg>
