<svg width="32" height="32" viewBox="0 0 32 32" fill="none" xmlns="http://www.w3.org/2000/svg">
<path fill-rule="evenodd" clip-rule="evenodd" d="M5.32733 4.26006C5.73598 3.88855 6.36843 3.91867 6.73994 4.32733L26.7399 26.3273C27.1114 26.736 27.0813 27.3684 26.6727 27.7399C26.264 28.1114 25.6316 28.0813 25.2601 27.6727L5.26006 5.67267C4.88855 5.26402 4.91867 4.63157 5.32733 4.26006Z" fill="#000022"/>
<path fill-rule="evenodd" clip-rule="evenodd" d="M12 23C12.5523 23 13 23.4477 13 24V25C13 25.7956 13.3161 26.5587 13.8787 27.1213C14.4413 27.6839 15.2044 28 16 28C16.7956 28 17.5587 27.6839 18.1213 27.1213C18.6839 26.5587 19 25.7956 19 25V24C19 23.4477 19.4477 23 20 23C20.5523 23 21 23.4477 21 24V25C21 26.3261 20.4732 27.5979 19.5355 28.5355C18.5979 29.4732 17.3261 30 16 30C14.6739 30 13.4021 29.4732 12.4645 28.5355C11.5268 27.5979 11 26.3261 11 25V24C11 23.4477 11.4477 23 12 23Z" fill="#000022"/>
<path fill-rule="evenodd" clip-rule="evenodd" d="M9.17823 7.05041C9.63363 7.36286 9.74952 7.98533 9.43707 8.44074C8.51641 9.78264 8.02407 11.3721 8.02499 12.9994L8.02499 14C8.02499 18.6157 7.05721 21.3954 6.12851 23H23.275C23.8273 23 24.275 23.4477 24.275 24C24.275 24.5523 23.8273 25 23.275 25H6.12499L6.12147 25C5.77099 24.9988 5.427 24.9055 5.12393 24.7294C4.82088 24.5534 4.5694 24.3008 4.3947 23.9969C4.21999 23.6931 4.1282 23.3487 4.12851 22.9982C4.12882 22.6478 4.22122 22.3035 4.39647 22L4.39706 21.999C5.11818 20.7534 6.02499 18.3334 6.02499 14V13.0002C6.02396 10.9687 6.63861 8.9844 7.7879 7.30926C8.10035 6.85386 8.72282 6.73797 9.17823 7.05041Z" fill="#000022"/>
<path fill-rule="evenodd" clip-rule="evenodd" d="M16.052 4.99994C14.6524 4.98528 13.2743 5.34512 12.0605 6.04217C11.5816 6.31721 10.9704 6.15193 10.6953 5.673C10.4203 5.19407 10.5856 4.58286 11.0645 4.30782C12.5871 3.43341 14.3158 2.9819 16.0715 3.00004C21.5881 3.04263 25.975 7.61931 25.975 13.1125V14C25.975 17.2316 26.4831 19.3934 27.0316 20.799C27.2324 21.3135 26.978 21.8933 26.4635 22.0941C25.949 22.2949 25.3692 22.0405 25.1684 21.526C24.5169 19.8566 23.975 17.4434 23.975 14V13.1125C23.975 8.68116 20.4376 5.03317 16.0549 4.99997L16.052 4.99994Z" fill="#000022"/>
</svg>
