<svg width="32" height="32" viewBox="0 0 32 32" fill="none" xmlns="http://www.w3.org/2000/svg">
<path fill-rule="evenodd" clip-rule="evenodd" d="M16 6.02503C13.908 6.02503 11.8401 6.88158 10.3608 8.36086C8.88154 9.84013 8.025 11.908 8.025 14C8.025 18.6015 7.06315 21.3784 6.13708 22.9852C6.13818 22.9883 6.13969 22.9917 6.14165 22.9951C6.14268 22.9969 6.14474 23 6.14474 23H25.8552C25.8552 23 25.8573 22.9969 25.8583 22.9951C25.8603 22.9917 25.8618 22.9883 25.8629 22.9852C24.9368 21.3784 23.975 18.6015 23.975 14C23.975 11.908 23.1184 9.84013 21.6392 8.36086C20.1599 6.88158 18.092 6.02503 16 6.02503ZM8.94661 6.94664C10.801 5.09229 13.3776 4.02503 16 4.02503C18.6224 4.02503 21.199 5.09229 23.0534 6.94664C24.9077 8.80099 25.975 11.3776 25.975 14C25.975 18.3334 26.8818 20.7534 27.6029 21.999L27.6035 22C28.3494 23.2919 27.4169 24.9946 25.8785 25L25.875 25H6.125L6.12147 25C4.58306 24.9946 3.65058 23.2919 4.39647 22L4.39707 21.999C5.11819 20.7534 6.025 18.3334 6.025 14C6.025 11.3776 7.09226 8.80099 8.94661 6.94664Z" fill="#000022"/>
<path fill-rule="evenodd" clip-rule="evenodd" d="M12 23C12.5523 23 13 23.4477 13 24V25C13 25.7957 13.3161 26.5587 13.8787 27.1213C14.4413 27.6839 15.2044 28 16 28C16.7957 28 17.5587 27.6839 18.1213 27.1213C18.6839 26.5587 19 25.7957 19 25V24C19 23.4477 19.4477 23 20 23C20.5523 23 21 23.4477 21 24V25C21 26.3261 20.4732 27.5979 19.5355 28.5355C18.5979 29.4732 17.3261 30 16 30C14.6739 30 13.4022 29.4732 12.4645 28.5355C11.5268 27.5979 11 26.3261 11 25V24C11 23.4477 11.4477 23 12 23Z" fill="#000022"/>
<path fill-rule="evenodd" clip-rule="evenodd" d="M22.0794 2.46621C22.3742 1.99919 22.9918 1.85959 23.4588 2.15439C25.65 3.53758 27.4185 5.49687 28.5707 7.81784C28.8163 8.31253 28.6143 8.91263 28.1197 9.15821C27.625 9.40379 27.0249 9.20185 26.7793 8.70717C25.7902 6.71483 24.2721 5.03296 22.3912 3.84562C21.9242 3.55082 21.7846 2.93323 22.0794 2.46621Z" fill="#000022"/>
<path fill-rule="evenodd" clip-rule="evenodd" d="M9.92063 2.46621C10.2154 2.93323 10.0758 3.55082 9.60881 3.84562C7.72788 5.03296 6.2098 6.71483 5.22072 8.70717C4.97514 9.20185 4.37504 9.40379 3.88036 9.15821C3.38568 8.91263 3.18374 8.31253 3.42932 7.81784C4.58155 5.49687 6.35003 3.53758 8.54123 2.15439C9.00825 1.85959 9.62583 1.99919 9.92063 2.46621Z" fill="#000022"/>
</svg>
