<svg width="32" height="32" viewBox="0 0 32 32" fill="none" xmlns="http://www.w3.org/2000/svg">
<path fill-rule="evenodd" clip-rule="evenodd" d="M16 6.02502C13.908 6.02502 11.8401 6.88157 10.3608 8.36085C8.88153 9.84012 8.02498 11.908 8.02498 14C8.02498 18.6015 7.06314 21.3784 6.13706 22.9852C6.13817 22.9883 6.13968 22.9916 6.14164 22.9951C6.14267 22.9969 6.14473 23 6.14473 23H25.8552C25.8552 23 25.8573 22.9969 25.8583 22.9951C25.8603 22.9916 25.8618 22.9883 25.8629 22.9852C24.9368 21.3784 23.975 18.6015 23.975 14C23.975 11.908 23.1184 9.84012 21.6392 8.36085C20.1599 6.88157 18.092 6.02502 16 6.02502ZM8.94659 6.94663C10.8009 5.09229 13.3775 4.02502 16 4.02502C18.6224 4.02502 21.199 5.09229 23.0534 6.94663C24.9077 8.80098 25.975 11.3776 25.975 14C25.975 18.3334 26.8818 20.7534 27.6029 21.999L27.6035 22C28.3494 23.2919 27.4169 24.9946 25.8785 25L25.875 25H6.12498L6.12146 25C4.58304 24.9946 3.65057 23.2919 4.39646 22L4.39706 21.999C5.11818 20.7534 6.02498 18.3334 6.02498 14C6.02498 11.3776 7.09225 8.80098 8.94659 6.94663Z" fill="#000022"/>
<path fill-rule="evenodd" clip-rule="evenodd" d="M12 23C12.5523 23 13 23.4477 13 24V25C13 25.7956 13.3161 26.5587 13.8787 27.1213C14.4413 27.6839 15.2043 28 16 28C16.7956 28 17.5587 27.6839 18.1213 27.1213C18.6839 26.5587 19 25.7956 19 25V24C19 23.4477 19.4477 23 20 23C20.5523 23 21 23.4477 21 24V25C21 26.3261 20.4732 27.5979 19.5355 28.5355C18.5978 29.4732 17.3261 30 16 30C14.6739 30 13.4021 29.4732 12.4645 28.5355C11.5268 27.5979 11 26.3261 11 25V24C11 23.4477 11.4477 23 12 23Z" fill="#000022"/>
</svg>
