<svg width="32" height="32" viewBox="0 0 32 32" fill="none" xmlns="http://www.w3.org/2000/svg">
<path fill-rule="evenodd" clip-rule="evenodd" d="M10.7304 11.7304C11.1209 11.3399 11.7541 11.3399 12.1446 11.7304L20.6321 20.2179C21.0226 20.6084 21.0226 21.2416 20.6321 21.6321C20.2416 22.0227 19.6084 22.0227 19.2179 21.6321L10.7304 13.1446C10.3399 12.7541 10.3399 12.1209 10.7304 11.7304Z" fill="#000022"/>
<path fill-rule="evenodd" clip-rule="evenodd" d="M20.3052 5.86186C20.0667 5.76236 19.7833 5.76236 19.5448 5.86186C19.4243 5.91211 19.315 5.98575 19.2232 6.07852L19.2196 6.08213L5.07851 20.2232C4.98575 20.315 4.9121 20.4243 4.86184 20.5448C4.76234 20.7833 4.76234 21.0667 4.86184 21.3052C4.9121 21.4257 4.98574 21.535 5.0785 21.6268L5.08211 21.6304L9.42671 25.975H13.4611L26.2893 13.159C26.4757 12.9677 26.5801 12.711 26.5801 12.4438C26.5801 12.1766 26.4758 11.92 26.2895 11.7287L20.6268 6.07853C20.535 5.98576 20.4257 5.91211 20.3052 5.86186ZM27 27.975C27.5523 27.975 28 27.5273 28 26.975C28 26.4227 27.5523 25.975 27 25.975H16.2908L27.7068 14.57L27.7135 14.5631C28.2689 13.9975 28.5801 13.2365 28.5801 12.4438C28.5801 11.6511 28.2689 10.89 27.7135 10.3244L22.0482 4.67151L22.0457 4.66899C21.7684 4.38954 21.4386 4.16764 21.0753 4.01605C20.344 3.71096 19.506 3.71096 18.7747 4.01605C18.4112 4.16773 18.0812 4.38981 17.8038 4.6695L17.8018 4.67151L3.67149 18.8018L3.66948 18.8038C3.38979 19.0812 3.16771 19.4112 3.01603 19.7747C2.71094 20.506 2.71094 21.344 3.01603 22.0753C3.16769 22.4388 3.38973 22.7687 3.66936 23.0461L3.67149 23.0482L8.30539 27.6821C8.49293 27.8697 8.74728 27.975 9.0125 27.975H27Z" fill="#000022"/>
</svg>
