<svg width="32" height="32" viewBox="0 0 32 32" fill="none" xmlns="http://www.w3.org/2000/svg">
<path fill-rule="evenodd" clip-rule="evenodd" d="M5.32733 4.26007C5.73599 3.88856 6.36844 3.91868 6.73994 4.32733L26.7399 26.3273C27.1115 26.736 27.0813 27.3684 26.6727 27.7399C26.264 28.1115 25.6316 28.0813 25.2601 27.6727L5.26006 5.67268C4.88856 5.26402 4.91867 4.63157 5.32733 4.26007Z" fill="#000022"/>
<path fill-rule="evenodd" clip-rule="evenodd" d="M13.3775 11.6274C13.749 12.0361 13.7188 12.6685 13.3101 13.04C12.7127 13.583 12.2936 14.2941 12.1078 15.0798C11.9221 15.8655 11.9785 16.689 12.2695 17.442C12.5606 18.1951 13.0727 18.8424 13.7385 19.299C14.4044 19.7555 15.1928 19.9999 16.0001 20L16.0038 20C16.9968 20.0038 17.9548 19.6334 18.687 18.9626C19.0942 18.5896 19.7268 18.6173 20.0999 19.0245C20.4729 19.4317 20.4452 20.0643 20.038 20.4374C18.9355 21.4473 17.4932 22.0052 15.9981 22C14.7877 21.9995 13.6058 21.6329 12.6075 20.9485C11.6087 20.2636 10.8406 19.2926 10.404 18.163C9.96742 17.0335 9.88288 15.7982 10.1615 14.6197C10.4401 13.4412 11.0688 12.3745 11.9649 11.56C12.3736 11.1885 13.006 11.2187 13.3775 11.6274Z" fill="#000022"/>
<path fill-rule="evenodd" clip-rule="evenodd" d="M10.1427 8.12431C10.3916 8.61732 10.1937 9.21877 9.70072 9.46769C7.32383 10.6678 5.62059 12.4062 4.50645 13.8611C3.95104 14.5864 3.54762 15.234 3.28505 15.696C3.22085 15.809 3.16517 15.9107 3.11786 15.9995C3.23551 16.2199 3.40455 16.5194 3.62749 16.8735C4.12853 17.6692 4.89614 18.7319 5.95711 19.7929C8.07329 21.9091 11.3326 24 16 24H16.0082C18.1924 24.0178 20.3494 23.5146 22.3001 22.5319C22.7934 22.2835 23.3946 22.4819 23.6431 22.9752C23.8916 23.4684 23.6931 24.0697 23.1999 24.3181C20.9663 25.4432 18.4967 26.0198 15.9958 26C10.6655 25.9988 6.9261 23.5903 4.5429 21.2071C3.35387 20.0181 2.49648 18.8308 1.93502 17.9391C1.6538 17.4924 1.4454 17.1177 1.30558 16.8507C1.23563 16.7172 1.18273 16.6104 1.14637 16.5349C1.12818 16.4971 1.11412 16.4672 1.10411 16.4455L1.09214 16.4194L1.08841 16.4111L1.08712 16.4082L1.08661 16.4071C1.08661 16.4071 1.08619 16.4062 2 16C1.08581 15.5948 1.0861 15.5941 1.0861 15.5941L1.08729 15.5914L1.08958 15.5863L1.09658 15.5709C1.10234 15.5583 1.11026 15.5411 1.12038 15.5195C1.14063 15.4765 1.16967 15.416 1.20773 15.3398C1.28382 15.1874 1.39609 14.9721 1.54621 14.7079C1.84614 14.1801 2.29897 13.4543 2.91856 12.6452C4.15442 11.0313 6.07618 9.05726 8.79929 7.68235C9.2923 7.43343 9.89375 7.6313 10.1427 8.12431ZM2 16L1.0861 15.5941C0.971565 15.8525 0.971411 16.1479 1.08619 16.4062L2 16Z" fill="#000022"/>
<path fill-rule="evenodd" clip-rule="evenodd" d="M13.2474 6.22626C20.4236 5.02501 27.2759 9.39671 30.8619 15.493C31.0185 15.7592 31.0433 16.0828 30.9291 16.3698C30.4646 17.5371 29.5863 19.3384 26.7417 21.8829C26.3301 22.2511 25.6979 22.2159 25.3297 21.8042C24.9615 21.3926 24.9967 20.7604 25.4083 20.3922C27.6181 18.4155 28.4593 17.0068 28.8799 16.0813C25.5353 10.7271 19.5637 7.19677 13.5776 8.19881C13.0329 8.28999 12.5174 7.92234 12.4262 7.37763C12.3351 6.83293 12.7027 6.31744 13.2474 6.22626Z" fill="#000022"/>
<path fill-rule="evenodd" clip-rule="evenodd" d="M15.955 10.9014C16.0578 10.3587 16.581 10.0022 17.1237 10.105C18.4002 10.3469 19.5634 10.9974 20.4377 11.9584C21.3121 12.9193 21.8501 14.1386 21.9707 15.4322C22.0219 15.9821 21.6177 16.4695 21.0678 16.5207C20.5179 16.572 20.0306 16.1677 19.9793 15.6178C19.899 14.7563 19.5407 13.9443 18.9584 13.3043C18.3761 12.6643 17.6015 12.2311 16.7513 12.0701C16.2087 11.9672 15.8522 11.444 15.955 10.9014Z" fill="#000022"/>
</svg>
