<svg width="32" height="32" viewBox="0 0 32 32" fill="none" xmlns="http://www.w3.org/2000/svg">
<path fill-rule="evenodd" clip-rule="evenodd" d="M16.0355 17.7096C17.3182 16.9308 17.3182 15.0692 16.0355 14.2904L4.96232 7.56747C3.62947 6.75825 1.92436 7.71778 1.92436 9.27705V22.723C1.92436 24.2823 3.62947 25.2418 4.96232 24.4326L16.0355 17.7096ZM14.9975 16L3.92436 22.723V9.27705L14.9975 16Z" fill="#000022"/>
<path fill-rule="evenodd" clip-rule="evenodd" d="M29.1136 17.7096C30.3963 16.9308 30.3963 15.0692 29.1136 14.2904L18.0405 7.56747C16.7076 6.75825 15.0025 7.71778 15.0025 9.27705V22.723C15.0025 24.2823 16.7076 25.2418 18.0405 24.4326L29.1136 17.7096ZM28.0756 16L17.0025 22.723V9.27705L28.0756 16Z" fill="#000022"/>
</svg>
