<svg width="112" height="24" viewBox="0 0 112 24" fill="none" xmlns="http://www.w3.org/2000/svg">
<g clip-path="url(#clip0_89_3163)">
<path d="M71 16.1821H75.05V18.5446H67.925V5.94456H71V16.1821ZM75.9125 13.5196C75.9125 12.4696 76.1 11.5696 76.475 10.8196C76.8876 10.0321 77.4126 9.43206 78.0876 9.01956C78.7626 8.60706 79.5126 8.38206 80.3376 8.38206C81.0501 8.38206 81.65 8.53206 82.175 8.83206C82.7 9.13206 83.1125 9.50706 83.4125 9.95706V8.53206H86.4875V18.5821H83.4125V17.1571C83.1125 17.6071 82.7 18.0196 82.1375 18.2821C81.6125 18.5821 80.975 18.7321 80.3 18.7321C79.475 18.7321 78.725 18.5071 78.05 18.0946C77.375 17.6446 76.85 17.0446 76.4375 16.2946C76.1 15.4696 75.9125 14.5696 75.9125 13.5196ZM83.4125 13.5571C83.4125 12.8071 83.1876 12.1696 82.7751 11.7571C82.3626 11.3071 81.8375 11.0821 81.2375 11.0821C80.6375 11.0821 80.1125 11.3071 79.6625 11.7571C79.25 12.2071 79.0251 12.8071 79.0251 13.5571C79.0251 14.3071 79.25 14.9446 79.6625 15.3946C80.1125 15.8446 80.6 16.0696 81.2375 16.0696C81.8375 16.0696 82.3626 15.8446 82.7751 15.3946C83.1876 14.9071 83.4125 14.3071 83.4125 13.5571ZM91.8125 9.95706C92.1125 9.50706 92.525 9.09456 93.05 8.83206C93.575 8.53206 94.2125 8.38206 94.8875 8.38206C95.7125 8.38206 96.4625 8.60706 97.1375 9.01956C97.8125 9.43206 98.3376 10.0321 98.7126 10.8196C99.1251 11.6071 99.3126 12.5071 99.3126 13.5196C99.3126 14.5321 99.1251 15.4696 98.7126 16.2571C98.3376 17.0446 97.8125 17.6446 97.1375 18.0571C96.4625 18.4696 95.7125 18.6946 94.8875 18.6946C94.175 18.6946 93.575 18.5446 93.05 18.2821C92.525 17.9821 92.1125 17.6071 91.8125 17.1571V18.5446H88.7375V5.23206H91.8125V9.95706ZM96.2 13.5196C96.2 12.7696 95.975 12.1696 95.5625 11.7196C95.15 11.2696 94.625 11.0446 93.9875 11.0446C93.3875 11.0446 92.8626 11.2696 92.4125 11.7196C92 12.1696 91.7751 12.7696 91.7751 13.5196C91.7751 14.2696 92 14.9071 92.4125 15.3196C92.8626 15.7696 93.35 15.9946 93.9875 15.9946C94.625 15.9946 95.1125 15.7696 95.5625 15.3196C95.975 14.9071 96.2 14.3071 96.2 13.5196ZM105.013 18.6946C104.15 18.6946 103.363 18.5446 102.688 18.2446C102.013 17.9446 101.45 17.5321 101.075 17.0071C100.663 16.4821 100.475 15.8821 100.4 15.2446H103.438C103.475 15.5821 103.625 15.8821 103.925 16.1071C104.225 16.3321 104.563 16.4446 104.975 16.4446C105.35 16.4446 105.65 16.3696 105.875 16.2196C106.1 16.0696 106.213 15.8821 106.213 15.6196C106.213 15.3196 106.063 15.1321 105.763 14.9821C105.463 14.8321 104.975 14.6821 104.3 14.5321C103.588 14.3821 102.988 14.1946 102.5 14.0071C102.013 13.8196 101.6 13.5196 101.263 13.1071C100.925 12.6946 100.738 12.1696 100.738 11.4571C100.738 10.8946 100.888 10.3696 101.188 9.88206C101.525 9.39456 101.975 9.01956 102.575 8.75706C103.213 8.49456 103.925 8.34456 104.788 8.34456C106.063 8.34456 107.038 8.64456 107.75 9.28206C108.5 9.91956 108.913 10.7446 109.025 11.7571H106.175C106.138 11.4196 105.988 11.1196 105.725 10.9321C105.463 10.7446 105.125 10.6321 104.713 10.6321C104.338 10.6321 104.075 10.7071 103.888 10.8571C103.7 11.0071 103.588 11.1571 103.588 11.4196C103.588 11.7196 103.738 11.9071 104.038 12.0571C104.338 12.2071 104.825 12.3571 105.463 12.5071C106.213 12.6946 106.813 12.8821 107.263 13.0696C107.713 13.2571 108.125 13.5571 108.5 13.9696C108.875 14.3821 109.063 14.9446 109.063 15.6196C109.063 16.2196 108.913 16.7446 108.575 17.1946C108.238 17.6446 107.788 18.0196 107.15 18.2821C106.55 18.5821 105.838 18.6946 105.013 18.6946Z" fill="#000022"/>
<path d="M40.55 9.91965C40.325 9.50715 39.9875 9.16965 39.575 8.98215C39.1625 8.75715 38.675 8.64465 38.075 8.64465C37.0625 8.64465 36.275 8.98215 35.675 9.61965C35.075 10.2572 34.775 11.1197 34.775 12.2447C34.775 13.4072 35.075 14.3072 35.7125 14.9822C36.35 15.6197 37.2125 15.9572 38.3375 15.9572C39.0875 15.9572 39.725 15.7697 40.25 15.3947C40.775 15.0197 41.15 14.4572 41.4125 13.7447H37.475V11.4947H44.1875V14.3447C43.9625 15.0947 43.5875 15.8447 43.025 16.4822C42.5 17.1572 41.7875 17.6822 40.9625 18.0947C40.1375 18.5072 39.1625 18.6947 38.1125 18.6947C36.875 18.6947 35.75 18.4322 34.775 17.8697C33.8 17.3072 33.05 16.5572 32.4875 15.5822C31.9625 14.6072 31.6625 13.4822 31.6625 12.2447C31.6625 11.0072 31.925 9.88215 32.4875 8.90715C33.05 7.93215 33.8 7.14465 34.775 6.61965C35.75 6.05715 36.875 5.79465 38.1125 5.79465C39.6125 5.79465 40.8875 6.16965 41.9375 6.88215C42.9875 7.63215 43.6625 8.64465 44 9.91965H40.55ZM50.45 18.6947C49.475 18.6947 48.575 18.4697 47.7875 18.0572C47 17.6447 46.4 17.0447 45.95 16.2572C45.5 15.4697 45.275 14.5697 45.275 13.5197C45.275 12.4697 45.5 11.5697 45.95 10.8197C46.4 10.0322 47.0375 9.43215 47.825 9.01965C48.6125 8.60715 49.5125 8.38215 50.4875 8.38215C51.4625 8.38215 52.3625 8.60715 53.15 9.01965C53.9375 9.43215 54.575 10.0322 55.025 10.8197C55.475 11.6072 55.7 12.5072 55.7 13.5197C55.7 14.5322 55.475 15.4697 54.9875 16.2572C54.5375 17.0447 53.9 17.6447 53.1125 18.0572C52.325 18.5072 51.425 18.6947 50.45 18.6947ZM50.45 16.0322C51.05 16.0322 51.5375 15.8072 51.95 15.3947C52.3625 14.9447 52.5875 14.3447 52.5875 13.5572C52.5875 12.7697 52.4 12.1322 51.9875 11.7197C51.575 11.2697 51.0875 11.0822 50.525 11.0822C49.925 11.0822 49.4375 11.3072 49.025 11.7197C48.6125 12.1322 48.425 12.7697 48.425 13.5572C48.425 14.3447 48.6125 14.9822 48.9875 15.3947C49.3625 15.8447 49.85 16.0322 50.45 16.0322ZM58.85 7.48215C58.325 7.48215 57.875 7.33215 57.5 7.03215C57.1625 6.69465 57.0125 6.31965 57.0125 5.83215C57.0125 5.34465 57.1625 4.96965 57.5 4.63215C57.8375 4.29465 58.2875 4.14465 58.85 4.14465C59.375 4.14465 59.825 4.29465 60.1625 4.63215C60.5 4.93215 60.6875 5.34465 60.6875 5.83215C60.6875 6.28215 60.5 6.69465 60.1625 7.03215C59.825 7.33215 59.375 7.48215 58.85 7.48215ZM60.425 19.8572C60.425 21.0947 60.125 21.9947 59.4875 22.5197C58.85 23.0822 57.9875 23.3447 56.8625 23.3447H55.6625V20.7197H56.4125C56.75 20.7197 56.975 20.6447 57.125 20.5322C57.275 20.3822 57.35 20.1947 57.35 19.8947V8.53215H60.425V19.8572ZM64.175 7.48215C63.65 7.48215 63.2 7.33215 62.825 7.03215C62.4875 6.69465 62.3375 6.31965 62.3375 5.83215C62.3375 5.34465 62.4875 4.96965 62.825 4.63215C63.1625 4.29465 63.6125 4.14465 64.175 4.14465C64.7 4.14465 65.15 4.29465 65.4875 4.63215C65.825 4.93215 66.0125 5.34465 66.0125 5.83215C66.0125 6.28215 65.825 6.69465 65.4875 7.03215C65.1125 7.33215 64.7 7.48215 64.175 7.48215ZM65.7125 8.53215V18.5822H62.6375V8.53215H65.7125Z" fill="#000022"/>
<path d="M14.3375 4.96959V1.51959C14.3375 1.14459 13.925 0.994594 13.6625 1.25709L2.8625 11.9446C2.7125 12.0946 2.7125 12.3571 2.8625 12.5071L13.625 23.1571C13.8875 23.4196 14.3 23.2321 14.3 22.8946V19.4446L7.25 12.4321C7.1 12.2821 7.1 12.0571 7.25 11.9446L14.3375 4.96959ZM18.125 23.1571L28.8875 12.5071C29.0375 12.3571 29.0375 12.0946 28.8875 11.9446L18.125 1.25709C17.8625 0.994594 17.45 1.18209 17.45 1.51959V4.96959L24.4625 11.9071C24.6125 12.0571 24.6125 12.3196 24.4625 12.4321L22.5125 14.3446L16.1375 8.00709C15.9875 7.85709 15.7625 7.85709 15.65 8.00709L11.7125 11.9821C11.5625 12.1321 11.5625 12.3571 11.7125 12.4696L15.65 16.3696C15.8 16.5196 16.025 16.5196 16.1375 16.3696L18.1625 14.3821L20.375 16.5571L17.45 19.4446V22.8946C17.45 23.2321 17.8625 23.4196 18.125 23.1571Z" fill="#000022"/>
</g>
<defs>
<clipPath id="clip0_89_3163">
<rect width="111" height="24" fill="white" transform="translate(0.5)"/>
</clipPath>
</defs>
</svg>
