<svg width="32" height="32" viewBox="0 0 32 32" fill="none" xmlns="http://www.w3.org/2000/svg">
<path fill-rule="evenodd" clip-rule="evenodd" d="M18.4524 7.17429L15.9946 9.6321C15.6041 10.0226 14.9709 10.0226 14.5804 9.6321C14.1899 9.24158 14.1899 8.60841 14.5804 8.21789L17.0554 5.74289C17.0663 5.73197 17.0775 5.72132 17.0889 5.71092C18.3268 4.58257 19.952 3.9746 21.6266 4.01337C23.3012 4.05214 24.8965 4.73466 26.0809 5.9191C27.2653 7.10353 27.9478 8.6988 27.9866 10.3734C28.0254 12.048 27.4174 13.6731 26.2891 14.9111C26.2783 14.923 26.2672 14.9345 26.2558 14.9459L22.7209 18.4683C22.7205 18.4687 22.7201 18.4691 22.7196 18.4696C22.1172 19.074 21.4014 19.5535 20.6133 19.8809C19.8246 20.2084 18.979 20.377 18.125 20.377C17.271 20.377 16.4254 20.2084 15.6367 19.8809C14.848 19.5533 14.1318 19.0733 13.5291 18.4683C13.1393 18.077 13.1405 17.4439 13.5317 17.0541C13.923 16.6643 14.5561 16.6655 14.9459 17.0567C15.3628 17.4752 15.8583 17.8072 16.4038 18.0338C16.9494 18.2604 17.5343 18.377 18.125 18.377C18.7157 18.377 19.3006 18.2604 19.8462 18.0338C20.3917 17.8072 20.8871 17.4752 21.3041 17.0567L21.3066 17.0541L24.8263 13.5469C25.5983 12.6913 26.0138 11.5724 25.9871 10.4197C25.9603 9.25936 25.4874 8.154 24.6667 7.33331C23.846 6.51262 22.7406 6.0397 21.5803 6.01284C20.4273 5.98614 19.3081 6.40192 18.4524 7.17429Z" fill="#000022"/>
<path fill-rule="evenodd" clip-rule="evenodd" d="M13.875 13.623C13.2843 13.623 12.6994 13.7396 12.1539 13.9662C11.6083 14.1928 11.1129 14.5248 10.696 14.9433L10.6934 14.9459L7.17375 18.4531C6.40175 19.3087 5.98618 20.4276 6.01287 21.5803C6.03973 22.7406 6.51265 23.846 7.33334 24.6667C8.15403 25.4874 9.25939 25.9603 10.4197 25.9872C11.5727 26.0139 12.6919 25.5981 13.5476 24.8257L16.0054 22.3679C16.3959 21.9774 17.0291 21.9774 17.4196 22.3679C17.8102 22.7584 17.8102 23.3916 17.4196 23.7821L14.9446 26.2571C14.9337 26.268 14.9226 26.2787 14.9111 26.2891C13.6732 27.4174 12.048 28.0254 10.3734 27.9866C8.69883 27.9479 7.10356 27.2653 5.91913 26.0809C4.73469 24.8965 4.05217 23.3012 4.0134 21.6266C3.97464 19.952 4.5826 18.3269 5.71095 17.0889C5.72174 17.077 5.73282 17.0655 5.74417 17.0541L9.2791 13.5317C9.27955 13.5313 9.28 13.5308 9.28045 13.5304C9.8829 12.926 10.5987 12.4464 11.3868 12.1191C12.1754 11.7916 13.021 11.623 13.875 11.623C14.729 11.623 15.5746 11.7916 16.3633 12.1191C17.152 12.4467 17.8682 12.9267 18.471 13.5317C18.8607 13.923 18.8596 14.5561 18.4683 14.9459C18.0771 15.3357 17.4439 15.3345 17.0541 14.9433C16.6372 14.5248 16.1417 14.1928 15.5962 13.9662C15.0507 13.7396 14.4657 13.623 13.875 13.623Z" fill="#000022"/>
</svg>
