<svg width="32" height="32" viewBox="0 0 32 32" fill="none" xmlns="http://www.w3.org/2000/svg">
<path fill-rule="evenodd" clip-rule="evenodd" d="M16 4C13.7909 4 12 5.79086 12 8V16C12 18.2091 13.7909 20 16 20C18.2091 20 20 18.2091 20 16V8C20 5.79086 18.2091 4 16 4ZM9.99999 8C9.99999 4.68629 12.6863 2 16 2C19.3137 2 22 4.68629 22 8V16C22 19.3137 19.3137 22 16 22C12.6863 22 9.99999 19.3137 9.99999 16V8Z" fill="#000022"/>
<path fill-rule="evenodd" clip-rule="evenodd" d="M16 24C16.5523 24 17 24.4477 17 25V29C17 29.5523 16.5523 30 16 30C15.4477 30 15 29.5523 15 29V25C15 24.4477 15.4477 24 16 24Z" fill="#000022"/>
<path fill-rule="evenodd" clip-rule="evenodd" d="M6.93243 16.0069C7.48088 15.942 7.97813 16.334 8.04306 16.8824C8.27371 18.8308 9.21118 20.6267 10.6778 21.9299C12.1443 23.2331 14.0381 23.9529 16 23.9529C17.9619 23.9529 19.8557 23.2331 21.3222 21.9299C22.7888 20.6267 23.7263 18.8308 23.9569 16.8824C24.0219 16.334 24.5191 15.942 25.0676 16.0069C25.616 16.0719 26.008 16.5691 25.9431 17.1176C25.6548 19.5522 24.4834 21.7965 22.6507 23.425C20.8181 25.0534 18.4516 25.9529 16 25.9529C13.5484 25.9529 11.1819 25.0534 9.34927 23.425C7.51662 21.7965 6.34516 19.5522 6.05693 17.1176C5.992 16.5691 6.38397 16.0719 6.93243 16.0069Z" fill="#000022"/>
</svg>
