<svg width="32" height="32" viewBox="0 0 32 32" fill="none" xmlns="http://www.w3.org/2000/svg">
<path fill-rule="evenodd" clip-rule="evenodd" d="M18.5035 4.43398C19.4547 3.57218 20.7008 3.10915 21.9839 3.14074C23.267 3.17233 24.4888 3.69613 25.3963 4.60369C26.3039 5.51125 26.8277 6.73306 26.8593 8.01615C26.8909 9.29925 26.4278 10.5454 25.566 11.4965C25.5566 11.5069 25.5469 11.5171 25.537 11.5272L13.1245 24.1147C13.1114 24.128 13.0978 24.141 13.0839 24.1536C12.5133 24.6707 11.7656 24.9485 10.9957 24.9295C10.2259 24.9106 9.49281 24.5963 8.94827 24.0518C8.40373 23.5072 8.08945 22.7741 8.0705 22.0043C8.05154 21.2344 8.32937 20.4868 8.84644 19.9161C8.8556 19.906 8.86496 19.8961 8.87452 19.8863L19.287 9.29884C19.6743 8.90507 20.3074 8.8998 20.7012 9.28705C21.0949 9.67431 21.1002 10.3075 20.713 10.7012L10.3173 21.2716C10.1522 21.4602 10.0637 21.7041 10.0699 21.955C10.0762 22.2117 10.181 22.456 10.3625 22.6375C10.544 22.819 10.7884 22.9238 11.045 22.9301C11.2938 22.9363 11.5357 22.8494 11.7236 22.6869L24.0971 10.139C24.6057 9.5702 24.8787 8.8287 24.8599 8.06538C24.8409 7.29552 24.5267 6.56244 23.9821 6.0179C23.4376 5.47337 22.7045 5.15909 21.9346 5.14013C21.1735 5.12139 20.434 5.39276 19.8659 5.89863L7.46962 18.4697C6.5333 19.406 6.00726 20.6759 6.00726 22C6.00726 23.3242 6.53328 24.5941 7.4696 25.5304C8.40592 26.4667 9.67584 26.9928 11 26.9928C12.3241 26.9928 13.5941 26.4667 14.5304 25.5304L24.7937 15.2921C25.1847 14.902 25.8179 14.9028 26.208 15.2938C26.598 15.6848 26.5972 16.3179 26.2062 16.708L15.9446 26.9446C14.6332 28.256 12.8546 28.9928 11 28.9928C9.14541 28.9928 7.36678 28.256 6.05539 26.9446C4.744 25.6332 4.00726 23.8546 4.00726 22C4.00726 20.1467 4.74303 18.3692 6.0528 17.058L18.463 4.47289C18.4761 4.45954 18.4896 4.44657 18.5035 4.43398Z" fill="#000022"/>
</svg>
