<svg width="32" height="32" viewBox="0 0 32 32" fill="none" xmlns="http://www.w3.org/2000/svg">
<path fill-rule="evenodd" clip-rule="evenodd" d="M19.5782 4.00762C19.952 3.62979 20.4684 3.41418 21 3.41418C21.5315 3.41418 22.0479 3.62975 22.4217 4.00753L27.9925 9.57827C28.3703 9.95207 28.5858 10.4685 28.5858 11C28.5858 11.5315 28.3703 12.0479 27.9925 12.4217L12.9946 27.4196C12.8214 27.5928 12.5908 27.6964 12.3463 27.7108L12.1327 27.7232C11.9961 27.7311 11.7995 27.7423 11.5592 27.7559C11.0787 27.7829 10.4231 27.8189 9.72316 27.8549C8.33676 27.9263 6.73551 28 6 28C4.90305 28 4 27.097 4 26C4 25.2645 4.07369 23.6633 4.14507 22.2768C4.18111 21.5769 4.21714 20.9213 4.24415 20.4408C4.25766 20.2005 4.26892 20.0039 4.27681 19.8673L4.28917 19.6547C4.30358 19.4102 4.40724 19.1786 4.58039 19.0054L19.5782 4.00762ZM6.26384 20.1504C6.25735 20.2638 6.24964 20.3994 6.241 20.5531C6.21411 21.0315 6.17826 21.6838 6.14243 22.3797C6.07006 23.785 6 25.3276 6 26C6.67246 26 8.21497 25.9299 9.62032 25.8576C10.3162 25.8218 10.9685 25.7859 11.4469 25.759C11.6006 25.7504 11.7363 25.7427 11.8496 25.7362L26.5858 11L26.5804 10.9946L21 5.41421L20.9946 5.41964L6.26384 20.1504Z" fill="#000022"/>
<path fill-rule="evenodd" clip-rule="evenodd" d="M16.2929 7.29289C16.6834 6.90237 17.3166 6.90237 17.7071 7.29289L24.7071 14.2929C25.0976 14.6834 25.0976 15.3166 24.7071 15.7071C24.3166 16.0976 23.6834 16.0976 23.2929 15.7071L16.2929 8.70711C15.9024 8.31658 15.9024 7.68342 16.2929 7.29289Z" fill="#000022"/>
<path fill-rule="evenodd" clip-rule="evenodd" d="M21.209 10.7948C21.5985 11.1864 21.5968 11.8195 21.2052 12.209L9.48646 23.8652C9.09489 24.2547 8.46173 24.253 8.07225 23.8615C7.68277 23.4699 7.68446 22.8367 8.07603 22.4473L19.7948 10.791C20.1863 10.4015 20.8195 10.4032 21.209 10.7948Z" fill="#000022"/>
<path fill-rule="evenodd" clip-rule="evenodd" d="M4.63664 19.0116C5.02716 18.6211 5.66033 18.6211 6.05085 19.0116L12.9258 25.8866C13.3164 26.2772 13.3164 26.9103 12.9258 27.3009C12.5353 27.6914 11.9022 27.6914 11.5116 27.3009L4.63664 20.4259C4.24611 20.0353 4.24611 19.4022 4.63664 19.0116Z" fill="#000022"/>
</svg>
