<svg width="32" height="32" viewBox="0 0 32 32" fill="none" xmlns="http://www.w3.org/2000/svg">
<path fill-rule="evenodd" clip-rule="evenodd" d="M4.71476 4.46757C5.06234 4.17575 5.51065 4 6 4H26C27.1046 4 28 4.89543 28 6V26C28 26.4893 27.8243 26.9375 27.5326 27.2851C27.4995 27.3324 27.4618 27.3774 27.4196 27.4196C27.3774 27.4618 27.3324 27.4995 27.2851 27.5326C26.9375 27.8243 26.4893 28 26 28H6C4.89543 28 4 27.1046 4 26V6C4 5.51065 4.17575 5.06234 4.46757 4.71476C4.50062 4.66755 4.53824 4.62256 4.5804 4.5804C4.62256 4.53824 4.66755 4.50062 4.71476 4.46757ZM6 7.41421V26H24.5858L6 7.41421ZM26 24.5858L7.41421 6H26V24.5858Z" fill="#000022"/>
</svg>
