<svg width="32" height="32" viewBox="0 0 32 32" fill="none" xmlns="http://www.w3.org/2000/svg">
<path fill-rule="evenodd" clip-rule="evenodd" d="M15.9646 17.7096C14.6818 16.9308 14.6818 15.0692 15.9646 14.2904L27.0377 7.56747C28.3705 6.75825 30.0757 7.71778 30.0757 9.27705V22.723C30.0757 24.2823 28.3705 25.2418 27.0377 24.4326L15.9646 17.7096ZM17.0025 16L28.0757 22.723V9.27705L17.0025 16Z" fill="#000022"/>
<path fill-rule="evenodd" clip-rule="evenodd" d="M2.88642 17.7096C1.6037 16.9308 1.6037 15.0692 2.88642 14.2904L13.9596 7.56747C15.2924 6.75825 16.9975 7.71778 16.9975 9.27705V22.723C16.9975 24.2823 15.2924 25.2418 13.9596 24.4326L2.88642 17.7096ZM3.92438 16L14.9975 22.723V9.27705L3.92438 16Z" fill="#000022"/>
</svg>
