<svg width="32" height="32" viewBox="0 0 32 32" fill="none" xmlns="http://www.w3.org/2000/svg">
<path fill-rule="evenodd" clip-rule="evenodd" d="M7.01535 5.03526C7.32694 4.85904 7.68011 4.76967 8.03801 4.77649C8.3952 4.78329 8.74404 4.88564 9.04826 5.07289L9.05007 5.074L24.1268 14.3C24.4162 14.4794 24.655 14.7297 24.8207 15.0272C24.9863 15.3247 25.0732 15.6596 25.0732 16.0001C25.0732 16.3406 24.9863 16.6754 24.8207 16.9729C24.655 17.2704 24.4162 17.5207 24.1268 17.7001L24.122 17.703L9.05007 26.9261L9.04869 26.927C8.74436 27.1144 8.39536 27.2168 8.03801 27.2236C7.68011 27.2304 7.32694 27.1411 7.01535 26.9649C6.70377 26.7886 6.44519 26.532 6.26661 26.2218C6.08914 25.9135 5.99713 25.5635 6 25.2078V6.7923C5.99713 6.43666 6.08914 6.08664 6.26661 5.77834C6.44519 5.46811 6.70377 5.21149 7.01535 5.03526ZM23.0732 16.0001L7.99994 6.77613L8.00007 6.78756L8 25.224L8.00304 25.2221L23.0732 16.0001Z" fill="#000022"/>
<path fill-rule="evenodd" clip-rule="evenodd" d="M25 4C25.5523 4 26 4.44772 26 5V27C26 27.5523 25.5523 28 25 28C24.4477 28 24 27.5523 24 27V5C24 4.44772 24.4477 4 25 4Z" fill="#000022"/>
</svg>
