<svg width="32" height="32" viewBox="0 0 32 32" fill="none" xmlns="http://www.w3.org/2000/svg">
<path fill-rule="evenodd" clip-rule="evenodd" d="M26.6546 8.93117C27.0446 8.5402 27.6778 8.53946 28.0688 8.92953C28.9987 9.85726 29.7364 10.9593 30.2398 12.1726C30.7431 13.3858 31.0023 14.6864 31.0023 16C31.0023 17.3135 30.7431 18.6141 30.2398 19.8274C29.7364 21.0406 28.9987 22.1427 28.0688 23.0704C27.6778 23.4605 27.0446 23.4597 26.6546 23.0687C26.2645 22.6778 26.2652 22.0446 26.6562 21.6545C27.3999 20.9126 27.9899 20.0312 28.3925 19.0609C28.795 18.0906 29.0023 17.0505 29.0023 16C29.0023 14.9495 28.795 13.9093 28.3925 12.939C27.9899 11.9687 27.3999 11.0873 26.6562 10.3454C26.2652 9.95532 26.2645 9.32215 26.6546 8.93117Z" fill="#000022"/>
<path fill-rule="evenodd" clip-rule="evenodd" d="M19.4394 3.10169C19.7824 3.2695 20 3.61807 20 4.00001V28C20 28.3819 19.7824 28.7305 19.4394 28.8983C19.0963 29.0661 18.6875 29.0238 18.3861 28.7894L9.65689 22H4C3.46957 22 2.96086 21.7893 2.58579 21.4142C2.21071 21.0391 2 20.5304 2 20V12C2 11.4696 2.21071 10.9609 2.58579 10.5858C2.96086 10.2107 3.46957 10 4 10H9.65689L18.3861 3.21066C18.6875 2.97617 19.0963 2.93389 19.4394 3.10169ZM18 6.04465L10.6139 11.7894C10.4384 11.9259 10.2224 12 10 12H4V20H10C10.2224 20 10.4384 20.0741 10.6139 20.2107L18 25.9554V6.04465Z" fill="#000022"/>
<path fill-rule="evenodd" clip-rule="evenodd" d="M10 10C10.5523 10 11 10.4477 11 11V21C11 21.5523 10.5523 22 10 22C9.44772 22 9 21.5523 9 21V11C9 10.4477 9.44772 10 10 10Z" fill="#000022"/>
<path fill-rule="evenodd" clip-rule="evenodd" d="M23.1165 12.4693C23.5063 12.078 24.1395 12.0768 24.5308 12.4666C24.9959 12.93 25.365 13.4806 25.6169 14.087C25.8687 14.6934 25.9983 15.3435 25.9983 16.0001C25.9983 16.6566 25.8687 17.3068 25.6169 17.9131C25.365 18.5195 24.9959 19.0701 24.5308 19.5335C24.1395 19.9233 23.5063 19.9221 23.1165 19.5308C22.7268 19.1395 22.728 18.5064 23.1193 18.1166C23.3979 17.839 23.619 17.5092 23.7698 17.146C23.9207 16.7828 23.9983 16.3933 23.9983 16.0001C23.9983 15.6068 23.9207 15.2173 23.7698 14.8541C23.619 14.4909 23.3979 14.1611 23.1193 13.8835C22.728 13.4937 22.7268 12.8606 23.1165 12.4693Z" fill="#000022"/>
</svg>
