<svg width="32" height="32" viewBox="0 0 32 32" fill="none" xmlns="http://www.w3.org/2000/svg">
<path fill-rule="evenodd" clip-rule="evenodd" d="M16 5C12.134 5 9.00001 8.13401 9.00001 12C9.00001 15.866 12.134 19 16 19C19.866 19 23 15.866 23 12C23 8.13401 19.866 5 16 5ZM7.00001 12C7.00001 7.02944 11.0295 3 16 3C20.9706 3 25 7.02944 25 12C25 16.9706 20.9706 21 16 21C11.0295 21 7.00001 16.9706 7.00001 12Z" fill="#000022"/>
<path fill-rule="evenodd" clip-rule="evenodd" d="M16 20.9989C13.7178 20.9989 11.4759 21.5997 9.4995 22.7409C7.52312 23.882 5.88199 25.5234 4.74109 27.4999C4.46499 27.9782 3.85341 28.1422 3.37509 27.8661C2.89678 27.59 2.73284 26.9784 3.00894 26.5001C4.32538 24.2195 6.21899 22.3256 8.49942 21.0089C10.7798 19.6921 13.3667 18.9989 16 18.9989C18.6333 18.9989 21.2202 19.6921 23.5006 21.0089C25.781 22.3256 27.6747 24.2195 28.9911 26.5001C29.2672 26.9784 29.1033 27.59 28.6249 27.8661C28.1466 28.1422 27.535 27.9782 27.2589 27.4999C26.118 25.5234 24.4769 23.882 22.5005 22.7409C20.5242 21.5997 18.2822 20.9989 16 20.9989Z" fill="#000022"/>
</svg>
