<svg width="32" height="32" viewBox="0 0 32 32" fill="none" xmlns="http://www.w3.org/2000/svg">
<path fill-rule="evenodd" clip-rule="evenodd" d="M16 11C13.7909 11 12 12.7909 12 15C12 17.2092 13.7909 19 16 19C18.2091 19 20 17.2092 20 15C20 12.7909 18.2091 11 16 11ZM10 15C10 11.6863 12.6863 9.00001 16 9.00001C19.3137 9.00001 22 11.6863 22 15C22 18.3137 19.3137 21 16 21C12.6863 21 10 18.3137 10 15Z" fill="#000022"/>
<path fill-rule="evenodd" clip-rule="evenodd" d="M16 21C14.5226 21 13.0741 21.4083 11.815 22.1811C10.556 22.954 9.53545 24.0604 8.86667 25.3777C8.61665 25.8701 8.01476 26.0667 7.52231 25.8167C7.02985 25.5666 6.83332 24.9647 7.08333 24.4723C7.91932 22.8257 9.19494 21.4427 10.7688 20.4766C12.3427 19.5106 14.1533 19 16 19C17.8467 19 19.6573 19.5106 21.2312 20.4766C22.8051 21.4427 24.0807 22.8257 24.9167 24.4723C25.1667 24.9647 24.9701 25.5666 24.4777 25.8167C23.9852 26.0667 23.3833 25.8701 23.1333 25.3777C22.4645 24.0604 21.444 22.954 20.185 22.1811C18.9259 21.4083 17.4774 21 16 21Z" fill="#000022"/>
<path fill-rule="evenodd" clip-rule="evenodd" d="M21 7.00001C21 6.44773 21.4477 6.00001 22 6.00001H28C28.5523 6.00001 29 6.44773 29 7.00001C29 7.5523 28.5523 8.00001 28 8.00001H22C21.4477 8.00001 21 7.5523 21 7.00001Z" fill="#000022"/>
<path fill-rule="evenodd" clip-rule="evenodd" d="M25 3.00001C25.5523 3.00001 26 3.44773 26 4.00001V10C26 10.5523 25.5523 11 25 11C24.4477 11 24 10.5523 24 10V4.00001C24 3.44773 24.4477 3.00001 25 3.00001Z" fill="#000022"/>
<path fill-rule="evenodd" clip-rule="evenodd" d="M17.8005 5.14838C15.4977 4.76629 13.1331 5.12666 11.0487 6.17738C8.96422 7.22809 7.26807 8.91466 6.20557 10.9931C5.14306 13.0716 4.7693 15.4341 5.13834 17.7391C5.50737 20.044 6.60008 22.1718 8.25839 23.8146C9.9167 25.4574 12.0546 26.5301 14.3629 26.8775C16.6712 27.2249 19.0302 26.829 21.0986 25.747C23.167 24.6651 24.8375 22.9532 25.8686 20.859C26.8998 18.7648 27.2379 16.3969 26.8343 14.0978C26.7388 13.5538 27.1023 13.0354 27.6463 12.9399C28.1902 12.8444 28.7086 13.2079 28.8041 13.7519C29.2812 16.469 28.8815 19.2675 27.6629 21.7425C26.4444 24.2174 24.47 26.2406 22.0256 27.5192C19.5811 28.7979 16.7932 29.2658 14.0653 28.8552C11.3373 28.4447 8.81065 27.1769 6.85083 25.2354C4.89101 23.2939 3.59962 20.7792 3.16349 18.0552C2.72735 15.3312 3.16908 12.5391 4.42476 10.0828C5.68045 7.62641 7.68499 5.63319 10.1484 4.39144C12.6118 3.14969 15.4064 2.72379 18.1279 3.17535C18.6727 3.26575 19.0411 3.78071 18.9507 4.32555C18.8603 4.87038 18.3454 5.23878 17.8005 5.14838Z" fill="#000022"/>
</svg>
