<svg width="32" height="32" viewBox="0 0 32 32" fill="none" xmlns="http://www.w3.org/2000/svg">
<path fill-rule="evenodd" clip-rule="evenodd" d="M16 11C13.7909 11 12 12.7909 12 15C12 17.2091 13.7909 19 16 19C18.2091 19 20 17.2091 20 15C20 12.7909 18.2091 11 16 11ZM10 15C10 11.6863 12.6863 9 16 9C19.3137 9 22 11.6863 22 15C22 18.3137 19.3137 21 16 21C12.6863 21 10 18.3137 10 15Z" fill="#000022"/>
<path fill-rule="evenodd" clip-rule="evenodd" d="M16 21C14.5226 21 13.0741 21.4083 11.815 22.1811C10.556 22.954 9.53545 24.0604 8.86666 25.3777C8.61665 25.8701 8.01476 26.0667 7.52231 25.8166C7.02985 25.5666 6.83332 24.9647 7.08333 24.4723C7.91932 22.8256 9.19494 21.4427 10.7688 20.4766C12.3427 19.5106 14.1533 19 16 19C17.8467 19 19.6573 19.5106 21.2312 20.4766C22.8051 21.4427 24.0807 22.8256 24.9167 24.4723C25.1667 24.9647 24.9701 25.5666 24.4777 25.8166C23.9852 26.0667 23.3833 25.8701 23.1333 25.3777C22.4645 24.0604 21.444 22.954 20.185 22.1811C18.9259 21.4083 17.4774 21 16 21Z" fill="#000022"/>
<path fill-rule="evenodd" clip-rule="evenodd" d="M25 6C24.4477 6 24 6.44772 24 7C24 7.55228 24.4477 8 25 8C25.5523 8 26 7.55228 26 7C26 6.44772 25.5523 6 25 6ZM22 7C22 5.34315 23.3431 4 25 4C26.6569 4 28 5.34315 28 7C28 8.65685 26.6569 10 25 10C23.3431 10 22 8.65685 22 7Z" fill="#000022"/>
<path fill-rule="evenodd" clip-rule="evenodd" d="M25 2.5C25.5523 2.5 26 2.94772 26 3.5V5C26 5.55228 25.5523 6 25 6C24.4477 6 24 5.55228 24 5V3.5C24 2.94772 24.4477 2.5 25 2.5Z" fill="#000022"/>
<path fill-rule="evenodd" clip-rule="evenodd" d="M21.1109 4.74665C21.3889 4.26943 22.0011 4.10792 22.4783 4.38592L23.7658 5.13592C24.2431 5.41391 24.4046 6.02613 24.1266 6.50335C23.8486 6.98057 23.2364 7.14208 22.7591 6.86408L21.4716 6.11408C20.9944 5.83609 20.8329 5.22387 21.1109 4.74665Z" fill="#000022"/>
<path fill-rule="evenodd" clip-rule="evenodd" d="M24.1266 7.49665C24.4046 7.97387 24.2431 8.58609 23.7658 8.86408L22.4783 9.61408C22.0011 9.89208 21.3889 9.73057 21.1109 9.25335C20.8329 8.77613 20.9944 8.16391 21.4716 7.88592L22.7591 7.13592C23.2364 6.85792 23.8486 7.01943 24.1266 7.49665Z" fill="#000022"/>
<path fill-rule="evenodd" clip-rule="evenodd" d="M25 8C25.5523 8 26 8.44772 26 9V10.5C26 11.0523 25.5523 11.5 25 11.5C24.4477 11.5 24 11.0523 24 10.5V9C24 8.44772 24.4477 8 25 8Z" fill="#000022"/>
<path fill-rule="evenodd" clip-rule="evenodd" d="M25.8734 7.49665C26.1514 7.01943 26.7636 6.85792 27.2408 7.13592L28.5283 7.88592C29.0056 8.16391 29.1671 8.77613 28.8891 9.25335C28.6111 9.73057 27.9989 9.89208 27.5216 9.61408L26.2341 8.86408C25.7569 8.58609 25.5954 7.97387 25.8734 7.49665Z" fill="#000022"/>
<path fill-rule="evenodd" clip-rule="evenodd" d="M28.8891 4.74665C29.1671 5.22387 29.0056 5.83609 28.5283 6.11408L27.2408 6.86408C26.7636 7.14208 26.1514 6.98057 25.8734 6.50335C25.5954 6.02613 25.7569 5.41391 26.2341 5.13592L27.5216 4.38592C27.9989 4.10792 28.6111 4.26943 28.8891 4.74665Z" fill="#000022"/>
<path fill-rule="evenodd" clip-rule="evenodd" d="M17.8005 5.14836C15.4977 4.76627 13.1331 5.12665 11.0487 6.17736C8.96422 7.22808 7.26807 8.91464 6.20557 10.9931C5.14306 13.0715 4.7693 15.4341 5.13834 17.739C5.50737 20.044 6.60008 22.1717 8.25839 23.8146C9.9167 25.4574 12.0546 26.5301 14.3629 26.8775C16.6712 27.2249 19.0302 26.829 21.0986 25.747C23.167 24.6651 24.8375 22.9532 25.8686 20.859C26.8998 18.7648 27.2379 16.3969 26.8343 14.0977C26.7388 13.5538 27.1023 13.0354 27.6463 12.9399C28.1902 12.8444 28.7086 13.2079 28.8041 13.7519C29.2812 16.469 28.8815 19.2675 27.6629 21.7424C26.4444 24.2174 24.47 26.2406 22.0256 27.5192C19.5811 28.7979 16.7932 29.2658 14.0653 28.8552C11.3373 28.4447 8.81065 27.1769 6.85083 25.2354C4.891 23.2939 3.59962 20.7792 3.16349 18.0552C2.72735 15.3312 3.16908 12.5391 4.42476 10.0827C5.68045 7.6264 7.68499 5.63318 10.1484 4.39143C12.6118 3.14968 15.4064 2.72378 18.1279 3.17534C18.6727 3.26574 19.0411 3.7807 18.9507 4.32554C18.8603 4.87037 18.3454 5.23876 17.8005 5.14836Z" fill="#000022"/>
</svg>
