<svg width="48" height="48" viewBox="0 0 48 48" fill="none" xmlns="http://www.w3.org/2000/svg">
<g clip-path="url(#clip0_98_2168)">
<path d="M48 24C48 37.2548 37.2548 48 24 48C10.7452 48 0 37.2548 0 24C0 10.7452 10.7452 0 24 0C37.2548 0 48 10.7452 48 24Z" fill="white"/>
<path fill-rule="evenodd" clip-rule="evenodd" d="M24 46.4C36.3712 46.4 46.4 36.3712 46.4 24C46.4 11.6288 36.3712 1.6 24 1.6C11.6288 1.6 1.6 11.6288 1.6 24C1.6 36.3712 11.6288 46.4 24 46.4ZM24 48C37.2548 48 48 37.2548 48 24C48 10.7452 37.2548 0 24 0C10.7452 0 0 10.7452 0 24C0 37.2548 10.7452 48 24 48Z" fill="#000022"/>
<path fill-rule="evenodd" clip-rule="evenodd" d="M20.7916 10.2376C21.5833 9.4527 22.953 9.98828 22.953 11.1369V15.2221C22.953 15.4361 22.8673 15.6412 22.7149 15.7915L14.6212 23.7794L22.6976 31.7858C22.8492 31.936 22.9344 32.1406 22.9344 32.3539V36.4391C22.9344 37.5877 21.5648 38.1233 20.773 37.3385L8.02045 24.6966C7.5191 24.1996 7.5191 23.3948 8.02045 22.8978L20.7916 10.2376ZM21.353 11.934L9.38587 23.7972L21.3344 35.6421V32.6874L13.218 24.6414C12.7352 24.1628 12.7352 23.3948 13.218 22.9162L21.353 14.8876V11.934ZM25.0657 11.1371C25.0657 9.98847 26.4354 9.45289 27.2271 10.2378L27.2275 10.2382L39.9797 22.898L39.9801 22.8984C40.481 23.3955 40.4809 24.1999 39.9797 24.6968L27.2271 37.3386C26.4354 38.1235 25.0657 37.5879 25.0657 36.4393V32.3541C25.0657 32.1407 25.1509 31.9362 25.3025 31.786L28.182 28.9314L26.701 27.4633L24.8696 29.2788C24.3907 29.7535 23.6281 29.7535 23.1492 29.2788L18.49 24.66C18.0072 24.1814 18.0072 23.4134 18.49 22.9348L23.1492 18.316C23.6281 17.8413 24.3907 17.8413 24.8696 18.316L31.88 25.2655L33.3703 23.7882L25.3025 15.7904C25.1509 15.6402 25.0657 15.4357 25.0657 15.2223V11.1371ZM26.6657 11.935V14.8889L34.745 22.898C35.2231 23.3719 35.2731 24.1885 34.7336 24.6897L32.4432 26.9602C32.1314 27.2693 31.6286 27.2693 31.3168 26.9602L24.0094 19.7162L19.8925 23.7974L24.0094 27.8786L26.1378 25.7687C26.4496 25.4595 26.9524 25.4595 27.2642 25.7687L29.8816 28.3633C30.0331 28.5135 30.1184 28.7181 30.1184 28.9314C30.1184 29.1448 30.0331 29.3494 29.8816 29.4996L26.6657 32.6875V35.6422L38.6144 23.7972L26.6657 11.935Z" fill="#000022"/>
</g>
<defs>
<clipPath id="clip0_98_2168">
<rect width="48" height="48" fill="white"/>
</clipPath>
</defs>
</svg>
