<svg width="32" height="32" viewBox="0 0 32 32" fill="none" xmlns="http://www.w3.org/2000/svg">
<path fill-rule="evenodd" clip-rule="evenodd" d="M11 8C7.96243 8 5.49999 10.4624 5.49999 13.5C5.49999 16.5376 7.96243 19 11 19C14.0376 19 16.5 16.5376 16.5 13.5C16.5 10.4624 14.0376 8 11 8ZM3.49999 13.5C3.49999 9.35787 6.85786 6 11 6C15.1421 6 18.5 9.35787 18.5 13.5C18.5 17.6421 15.1421 21 11 21C6.85786 21 3.49999 17.6421 3.49999 13.5Z" fill="#000022"/>
<path fill-rule="evenodd" clip-rule="evenodd" d="M21.1845 6.00001L21.1875 6C23.1766 6 25.0843 6.79018 26.4908 8.1967C27.8973 9.60323 28.6875 11.5109 28.6875 13.5C28.6875 15.4891 27.8973 17.3968 26.4908 18.8033C25.0843 20.2098 23.1766 21 21.1875 21C20.6352 21 20.1875 20.5523 20.1875 20C20.1875 19.4477 20.6352 19 21.1875 19C22.6462 19 24.0451 18.4205 25.0766 17.3891C26.108 16.3576 26.6875 14.9587 26.6875 13.5C26.6875 12.0413 26.108 10.6424 25.0766 9.61092C24.0455 8.57982 22.6472 8.00041 21.189 8C20.6816 8.00168 20.1765 8.06981 19.6868 8.20264C19.1537 8.3472 18.6044 8.03229 18.4599 7.49926C18.3153 6.96624 18.6302 6.41694 19.1632 6.27237C19.8222 6.09366 20.5017 6.00209 21.1845 6.00001Z" fill="#000022"/>
<path fill-rule="evenodd" clip-rule="evenodd" d="M11 21C9.39524 21 7.81406 21.3858 6.39 22.1256C4.96594 22.8654 3.74084 23.937 2.81817 25.25C2.50063 25.7019 1.8769 25.8107 1.42503 25.4932C0.973164 25.1757 0.864269 24.5519 1.18181 24.1001C2.28901 22.5245 3.75913 21.2385 5.468 20.3508C7.17687 19.463 9.07429 19 11 19C12.9257 19 14.8231 19.463 16.532 20.3508C18.2409 21.2385 19.711 22.5245 20.8182 24.1001C21.1357 24.5519 21.0268 25.1757 20.575 25.4932C20.1231 25.8107 19.4994 25.7019 19.1818 25.25C18.2591 23.937 17.034 22.8654 15.61 22.1256C14.1859 21.3858 12.6047 21 11 21Z" fill="#000022"/>
<path fill-rule="evenodd" clip-rule="evenodd" d="M25.7982 22.1244C24.3741 21.3847 22.7922 20.999 21.1875 21C20.6352 21 20.1875 20.5523 20.1875 20C20.1875 19.4477 20.6352 19 21.1875 19C23.1135 18.9988 25.0109 19.4617 26.7201 20.3496C28.4293 21.2374 29.8994 22.524 31.006 24.1005C31.3233 24.5525 31.2141 25.1762 30.762 25.4935C30.31 25.8108 29.6863 25.7016 29.369 25.2495C28.4471 23.9361 27.2222 22.8641 25.7982 22.1244Z" fill="#000022"/>
</svg>
