<svg width="32" height="32" viewBox="0 0 32 32" fill="none" xmlns="http://www.w3.org/2000/svg">
<path fill-rule="evenodd" clip-rule="evenodd" d="M11.0487 6.17738C13.1331 5.12666 15.4977 4.76629 17.8005 5.14838C18.3454 5.23878 18.8603 4.87038 18.9507 4.32555C19.0411 3.78071 18.6727 3.26575 18.1279 3.17535C15.4064 2.72379 12.6118 3.14969 10.1484 4.39144C7.68499 5.63319 5.68045 7.62641 4.42476 10.0828C3.16908 12.5391 2.72735 15.3312 3.16349 18.0552C3.59962 20.7792 4.891 23.2939 6.85083 25.2354C6.98221 25.3656 7.11613 25.4927 7.2525 25.6167C7.28637 25.6521 7.32313 25.6853 7.36263 25.7158C9.24163 27.3863 11.5692 28.4796 14.0653 28.8552C16.7932 29.2658 19.5811 28.7979 22.0256 27.5192C22.9722 27.0241 23.8483 26.4173 24.6373 25.7158C24.6769 25.6853 24.7136 25.6521 24.7475 25.6167C25.9465 24.5261 26.9383 23.2141 27.6629 21.7425C28.8815 19.2675 29.2812 16.469 28.8041 13.7519C28.7086 13.2079 28.1902 12.8444 27.6463 12.9399C27.1023 13.0354 26.7388 13.5538 26.8343 14.0978C27.2379 16.3969 26.8998 18.7648 25.8686 20.859C25.4295 21.7508 24.8745 22.5733 24.2221 23.3074C23.4351 22.1705 22.4179 21.205 21.2312 20.4766C20.7455 20.1785 20.2373 19.9237 19.7125 19.7139C21.1057 18.6151 22 16.912 22 15C22 11.6863 19.3137 9 16 9C12.6863 9 10 11.6863 10 15C10 16.912 10.8943 18.6151 12.2875 19.7139C11.7627 19.9237 11.2545 20.1785 10.7688 20.4766C9.58206 21.205 8.56489 22.1705 7.7779 23.3074C6.38872 21.7443 5.47046 19.8134 5.13834 17.7391C4.7693 15.4341 5.14306 13.0716 6.20557 10.9931C7.26807 8.91466 8.96422 7.22809 11.0487 6.17738ZM9.25845 24.6921C10.7392 25.8406 12.4953 26.5964 14.3629 26.8775C16.6712 27.2249 19.0302 26.829 21.0986 25.747C21.6794 25.4432 22.2288 25.0897 22.7416 24.6921C22.092 23.6754 21.2189 22.8158 20.185 22.1811C18.9469 21.4212 17.5258 21.013 16.0742 20.9995C16.0495 20.9998 16.0248 21 16 21C15.9752 21 15.9505 20.9998 15.9258 20.9995C14.4742 21.013 13.0531 21.4212 11.815 22.1811C10.7811 22.8158 9.90797 23.6754 9.25845 24.6921ZM21 7C21 6.44772 21.4477 6 22 6H28C28.5523 6 29 6.44772 29 7C29 7.55228 28.5523 8 28 8H22C21.4477 8 21 7.55228 21 7ZM12 15C12 12.7909 13.7909 11 16 11C18.2091 11 20 12.7909 20 15C20 17.1865 18.2457 18.9632 16.0678 18.9994L16 18.9992L15.9322 18.9994C13.7543 18.9632 12 17.1865 12 15Z" fill="#000022"/>
</svg>
